<svg width="80" height="80" viewBox="0 0 80 80" fill="none" xmlns="http://www.w3.org/2000/svg">
<path fill-rule="evenodd" clip-rule="evenodd" d="M62.2047 80C59.8137 79.7498 57.5295 78.8778 55.5786 77.4703C53.6277 76.0627 52.0778 74.1687 51.0827 71.9759L49.3032 65.7349L49.5256 65.2891H50.1929L53.3071 64.1747L54.1969 63.9518C55.9052 63.5939 57.6106 63.2224 59.313 62.8373L59.9803 65.512C61.0925 68.8554 62.8721 70.1928 65.5414 69.9699C66.4311 69.747 66.6535 69.5241 67.3209 68.8554C67.7658 68.6325 68.2106 67.7409 68.4331 66.8494V46.3433H48.191C48.191 47.4578 47.5236 49.4638 47.3012 50.1325C46.2802 52.8569 44.8554 55.4117 43.0748 57.7108C40.5021 60.7143 37.2112 63.015 33.5099 64.3976C28.5063 66.1276 23.1372 66.5119 17.939 65.512L14.1575 64.1747C10.6268 62.5817 7.54186 60.1419 5.17535 57.0709C2.80883 53.9998 1.23354 50.392 0.588632 46.5662L0.366191 45.2289C-0.289674 40.7704 -0.0629194 36.2261 1.03351 31.8553C1.4784 30.0722 2.81304 26.9517 4.14769 25.1686C5.25989 23.8312 7.4843 21.1565 8.81894 20.0421C12.8229 17.1445 17.0493 15.3613 22.1654 14.6927C24.3898 14.4698 28.3937 14.6927 30.6181 14.9156C34.6597 15.6478 38.4709 17.3282 41.7402 19.8192C42.827 20.6535 43.7993 21.6277 44.6319 22.7168L42.1851 26.2831L40.4055 28.512L38.8485 30.518L38.4036 30.2951C37.7362 29.4035 36.1792 28.0662 35.067 27.3975C33.3288 26.1228 31.3247 25.2599 29.2055 24.8738C27.0864 24.4877 24.9074 24.5885 22.8327 25.1686C21.0159 25.6225 19.287 26.3758 17.7166 27.3975C16.2776 28.5539 15.0051 29.904 13.9351 31.4096L13.7126 31.8553C12.1117 34.4897 11.3022 37.5304 11.3811 40.6138C11.46 43.6971 12.4239 46.6923 14.1575 49.2409C15.2059 50.9601 16.6344 52.4149 18.3328 53.4931C20.0313 54.5713 21.9542 55.244 23.9533 55.4594C25.9524 55.6748 27.9741 55.4271 29.8625 54.7354C31.7509 54.0436 33.4554 52.9264 34.8445 51.4698C36.1792 49.9096 37.0689 48.1265 37.5138 46.7891V46.3433H30.6181V36.5361H48.4134L48.8583 35.4216C49.7481 32.9698 51.0827 30.9638 52.8622 28.7349L56.8662 24.9457L57.7559 24.277C60.3024 22.3523 62.8984 20.4942 65.5414 18.7047C66.876 17.1445 67.5433 16.03 67.3209 14.6927C67.3209 13.1324 66.6536 12.2409 65.5414 11.3493C64.711 10.7227 63.6879 10.4073 62.6496 10.4577C61.5374 10.4577 60.6477 10.6806 59.9803 11.1264C58.4232 11.7951 57.311 12.9095 56.1988 14.4698C56.1988 14.9156 55.754 15.1385 55.754 15.1385H55.5315L47.7461 9.78905C47.3012 9.78905 49.0807 7.11435 50.6378 5.33121C52.8622 3.10229 55.5315 1.31916 58.6457 0.650483C62.2295 -0.286987 66.0026 -0.209828 69.5453 0.873374C71.7697 1.76494 73.9941 3.10229 75.5512 4.66254C77.8225 7.23754 79.0173 10.5898 78.8878 14.024C78.8878 18.9276 76.6634 22.9397 71.9921 26.9517L65.5414 31.4096C62.8721 33.1927 61.0925 34.5301 60.6477 35.8674C60.2028 36.759 59.0906 36.759 69.9902 36.759H80V51.6927C80 66.8494 80 67.0723 79.5551 69.0783C79.1204 71.0944 78.2335 72.985 76.9618 74.6069C75.69 76.2288 74.0666 77.5395 72.2146 78.4398C70.6575 79.1084 68.878 79.7771 67.0984 80H62.6496H62.2047Z" fill="#FF6400"/>
</svg>
