<svg width="615" height="572" viewBox="0 0 615 572" fill="none" xmlns="http://www.w3.org/2000/svg">
<path d="M415.16 210.232C415.16 210.232 422.409 197.021 439.739 198.49C439.739 198.49 464.901 176.472 491.734 195.555C491.734 195.555 520.257 190.827 541.377 199.646C555.463 205.528 560.115 211.697 560.115 211.697L415.16 210.232Z" fill="#F8FCFF"/>
<path d="M225.172 269.398H222.229C212.486 254.256 199.03 238.559 198.472 234.008C198.466 233.952 198.46 233.899 198.455 233.846C198.213 231.599 200 229.993 201.877 229.993C202.69 229.993 203.521 230.297 204.209 230.982C215.414 242.12 221.97 259.024 225.172 269.398Z" fill="#D8E8FD"/>
<path d="M219.542 269.398L210.786 269.395C195.479 256.921 179.942 245.95 178.062 241.383C177.022 238.86 177.205 237.171 177.838 236.045C178.502 234.862 179.745 234.215 181.027 234.215C181.622 234.215 182.222 234.356 182.781 234.645C198.291 242.741 211.067 257.511 219.542 269.398Z" fill="#D8E8FD"/>
<path d="M479.897 403.094V392.994C484.639 386.541 490.41 380.174 497.085 375.553C497.692 375.132 498.334 374.948 498.959 374.948C501.093 374.948 502.985 377.135 502.255 379.63C502.24 379.683 502.222 379.738 502.205 379.793C501.082 383.416 490.487 392.644 479.897 403.094Z" fill="#D8E8FD"/>
<path d="M479.897 414.352V406.494C489.987 397.982 503.149 389.014 517.346 384.948C517.704 384.848 518.064 384.799 518.421 384.799C519.957 384.799 521.41 385.7 521.919 387.164C522.327 388.34 522.187 389.959 520.702 392.141C517.823 396.362 498.326 404.607 479.897 414.352Z" fill="#D8E8FD"/>
<path d="M577.022 427.714C569.827 407.263 535.063 416.376 535.063 416.376C535.063 416.376 513.823 454.651 506.923 456.034C500.027 457.414 518.69 419.766 518.69 419.766C505.106 419.452 471.947 438.502 471.947 438.502C471.947 438.502 477.262 480.944 470.237 480.585C463.209 480.23 467.451 442.764 467.451 442.764C454.683 447.638 443.623 463.749 443.623 463.749C430.218 489.65 464.199 505.507 464.199 505.507C464.199 505.507 465.723 520.256 457.834 537.883C457.834 537.883 456.002 541.166 454.298 546.641L457.858 546.378C458.076 545.404 458.33 544.457 458.62 543.546L458.623 543.531L458.638 543.49C458.842 542.925 459.135 542.116 459.499 541.133L459.502 541.127V541.124C460.435 538.917 461.054 537.292 461.433 536.124L461.436 536.112C464.202 529.198 468.255 520.157 471.251 518.102C471.251 518.102 470.817 517.576 470.369 516.525C470.65 517.03 470.943 517.553 471.251 518.102C478.303 530.694 508.92 530.629 525.634 525.904C542.348 521.175 534.599 516.937 524.89 509.85C515.18 502.759 496.185 506.215 490.305 503.586C484.425 500.961 492.467 497.308 503.844 497.347C515.222 497.383 521.709 508.27 540.112 508.667C558.515 509.061 569.91 473.692 569.91 473.692C557.579 478.533 534.441 473.241 533.251 468.958C532.058 464.675 565.596 462.647 570.72 460.956C575.847 459.269 584.215 448.164 577.022 427.714Z" fill="#DFEBF9"/>
<path d="M94.1586 259.816C101.062 240.019 134.421 248.839 134.421 248.839C134.421 248.839 154.803 285.895 161.423 287.232C168.043 288.569 150.133 252.122 150.133 252.122C163.17 251.819 194.986 270.259 194.986 270.259C194.986 270.259 189.887 311.346 196.629 311.001C203.37 310.655 199.302 274.386 199.302 274.386C211.552 279.103 222.168 294.7 222.168 294.7C235.029 319.773 202.423 335.127 202.423 335.127C202.423 335.127 200.962 349.403 208.53 366.469C208.53 366.469 210.288 369.645 211.924 374.947L208.509 374.692C208.297 373.748 208.056 372.835 207.779 371.952L207.773 371.937L207.761 371.898C207.564 371.348 207.284 370.567 206.932 369.615L206.929 369.609V369.606C206.035 367.47 205.442 365.896 205.075 364.766L205.072 364.754C202.42 358.061 198.53 349.307 195.657 347.318C195.657 347.318 196.074 346.81 196.503 345.795C196.232 346.278 195.952 346.786 195.657 347.318C188.888 359.509 159.507 359.446 143.468 354.87C127.431 350.295 134.867 346.191 144.184 339.33C153.501 332.468 171.729 335.812 177.372 333.268C183.014 330.723 175.297 327.19 164.38 327.226C153.462 327.262 147.236 337.801 129.575 338.182C111.916 338.567 100.983 304.329 100.983 304.329C112.815 309.012 135.018 303.89 136.161 299.744C137.303 295.599 105.122 293.634 100.204 292C95.2859 290.365 87.2552 279.613 94.1586 259.816Z" fill="#DFEBF9"/>
<path d="M267.391 570.565H479.897V213.105H267.391V570.565Z" fill="#CDE0FB"/>
<path d="M496.785 345.393H479.897V343.986H496.785V345.393Z" fill="#163560"/>
<path d="M516.038 367.911H504.271C500.155 367.911 496.785 364.441 496.785 360.195V250.375C496.785 246.129 500.155 242.659 504.271 242.659H516.038C520.157 242.659 523.524 246.129 523.524 250.375V360.195C523.524 364.441 520.157 367.911 516.038 367.911Z" fill="#F78248"/>
<path d="M505.229 256.732H507.319V261.411H512.99V256.732H515.08V267.99H512.99V263.244H507.319V267.99H505.229V256.732Z" fill="white"/>
<path d="M513.344 282.77C513.344 280.916 512.013 279.382 510.143 279.382C508.272 279.382 506.966 280.889 506.966 282.77C506.966 284.618 508.299 286.158 510.169 286.158C512.04 286.158 513.344 284.645 513.344 282.77ZM505.229 282.77C505.229 280.087 507.276 277.841 510.169 277.841C513.063 277.841 515.08 280.06 515.08 282.77C515.08 285.45 513.036 287.693 510.143 287.693C507.249 287.693 505.229 285.477 505.229 282.77Z" fill="white"/>
<path d="M509.08 299.38H505.229V297.544H515.08V299.38H511.229V308.803H509.08V299.38Z" fill="white"/>
<path d="M506.636 318.654H513.606V320.423H508.289V323.351H513.001V325.12H508.289V328.144H513.673V329.913H506.636V318.654Z" fill="white"/>
<path d="M506.636 339.764H508.397V348.039H513.673V349.615H506.636V339.764Z" fill="white"/>
<path d="M457.38 304.581H416.568V245.473H457.38V304.581Z" fill="#AFCDFB"/>
<path d="M436.269 245.473C436.269 245.473 436.725 265.285 416.568 280.656V245.473H436.269Z" fill="#D9EAFF"/>
<path d="M439.086 245.473C439.086 245.473 438.661 265.285 457.38 280.656V245.473H439.086Z" fill="#D9EAFF"/>
<path d="M457.38 286.286H416.568V284.878H457.38V286.286Z" fill="white"/>
<path d="M418.409 304.144H456.949V247.317H418.409V304.144ZM458.787 305.988H416.568V245.473H458.787V305.988Z" fill="white"/>
<path d="M394.05 304.581H353.238V245.473H394.05V304.581Z" fill="#AFCDFB"/>
<path d="M371.532 245.473C371.532 245.473 371.959 265.285 353.238 280.656V245.473H371.532Z" fill="#D9EAFF"/>
<path d="M375.756 245.473C375.756 245.473 375.332 265.285 394.05 280.656V245.473H375.756Z" fill="#D9EAFF"/>
<path d="M374.348 304.581H372.941V245.473H374.348V304.581Z" fill="white"/>
<path d="M394.05 286.286H353.238V284.878H394.05V286.286Z" fill="white"/>
<path d="M353.669 304.144H392.209V247.317H353.669V304.144ZM394.051 305.988H351.831V245.473H394.051V305.988Z" fill="white"/>
<path d="M329.313 304.581H288.501V245.473H329.313V304.581Z" fill="#AFCDFB"/>
<path d="M308.203 245.473C308.203 245.473 308.659 265.285 288.501 280.656V245.473H308.203Z" fill="#D9EAFF"/>
<path d="M311.019 245.473C311.019 245.473 310.595 265.285 329.314 280.656V245.473H311.019Z" fill="#D9EAFF"/>
<path d="M329.313 286.286H288.501V284.878H329.313V286.286Z" fill="white"/>
<path d="M290.342 304.144H328.88V247.317H290.342V304.144ZM330.721 305.988H288.501V245.473H330.721V305.988Z" fill="white"/>
<path d="M457.38 393.242H416.568V334.135H457.38V393.242Z" fill="#AFCDFB"/>
<path d="M436.269 334.135C436.269 334.135 436.725 353.946 416.568 369.318V334.135H436.269Z" fill="#D9EAFF"/>
<path d="M439.086 334.135C439.086 334.135 438.661 353.946 457.38 369.318V334.135H439.086Z" fill="#D9EAFF"/>
<path d="M418.409 392.803H456.949V335.982H418.409V392.803ZM458.787 394.65H416.568V334.135H458.787V394.65Z" fill="white"/>
<path d="M394.05 393.242H353.238V334.135H394.05V393.242Z" fill="#AFCDFB"/>
<path d="M371.532 334.135C371.532 334.135 371.959 353.946 353.238 369.318V334.135H371.532Z" fill="#D9EAFF"/>
<path d="M375.756 334.135C375.756 334.135 375.332 353.946 394.05 369.318V334.135H375.756Z" fill="#D9EAFF"/>
<path d="M374.348 393.242H372.941V334.135H374.348V393.242Z" fill="white"/>
<path d="M353.669 392.803H392.209V335.982H353.669V392.803ZM394.051 394.65H351.831V334.135H394.051V394.65Z" fill="white"/>
<path d="M329.313 393.242H288.501V334.135H329.313V393.242Z" fill="#AFCDFB"/>
<path d="M308.203 334.135C308.203 334.135 308.659 353.946 288.501 369.318V334.135H308.203Z" fill="#D9EAFF"/>
<path d="M311.019 334.135C311.019 334.135 310.595 353.946 329.314 369.318V334.135H311.019Z" fill="#D9EAFF"/>
<path d="M290.342 392.803H328.88V335.982H290.342V392.803ZM330.721 394.65H288.501V334.135H330.721V394.65Z" fill="white"/>
<path d="M394.05 481.904H353.238V422.796H394.05V481.904Z" fill="#AFCDFB"/>
<path d="M371.532 422.796C371.532 422.796 371.959 442.607 353.238 457.979V422.796H371.532Z" fill="#D9EAFF"/>
<path d="M375.756 422.796C375.756 422.796 375.332 442.607 394.05 457.979V422.796H375.756Z" fill="#D9EAFF"/>
<path d="M374.348 481.904H372.941V422.796H374.348V481.904Z" fill="white"/>
<path d="M353.669 481.464H392.209V424.643H353.669V481.464ZM394.051 483.311H351.831V422.796H394.051V483.311Z" fill="white"/>
<path d="M288.501 481.904H329.313V422.796H288.501V481.904Z" fill="#AFCDFB"/>
<path d="M308.203 422.796C308.203 422.796 308.659 442.607 288.501 457.979V422.796H308.203Z" fill="#D9EAFF"/>
<path d="M311.019 422.796C311.019 422.796 310.595 442.607 329.314 457.979V422.796H311.019Z" fill="#D9EAFF"/>
<path d="M290.342 481.464H328.88V424.643H290.342V481.464ZM330.721 483.311H288.501V422.796H330.721V483.311Z" fill="white"/>
<path d="M264.577 570.565H482.712V522.716H264.577V570.565Z" fill="#AFCDFB"/>
<path d="M336.35 285.382L336.257 553.231C336.254 562.031 329.075 569.161 320.22 569.158L179.281 569.11C170.423 569.107 163.247 561.971 163.25 553.174L163.343 285.322C163.346 276.524 170.528 269.395 179.386 269.398L320.322 269.446C329.177 269.449 336.353 276.584 336.35 285.382Z" fill="#739AF0"/>
<path d="M179.865 270.584C172.187 270.584 165.937 276.834 165.934 284.523L165.841 552.568C165.838 560.257 172.082 566.514 179.763 566.517L319.735 566.565C327.413 566.568 333.663 560.314 333.666 552.625L333.759 284.58C333.762 276.891 327.515 270.635 319.837 270.635L179.865 270.584ZM319.732 570.565L179.763 570.517C169.879 570.514 161.839 562.463 161.842 552.568L161.935 284.52C161.938 274.626 169.981 266.58 179.868 266.583L319.837 266.631C329.721 266.634 337.761 274.686 337.758 284.583L337.665 552.628C337.662 562.522 329.616 570.571 319.732 570.565Z" fill="#163560"/>
<path d="M320.87 440.28V539.008C320.87 545.557 315.531 550.863 308.948 550.863H193.463C186.88 550.863 181.545 545.557 181.545 539.008V440.28C181.545 433.731 186.88 428.426 193.463 428.426H308.948C309.809 428.426 310.652 428.518 311.461 428.691C316.839 429.836 320.87 434.59 320.87 440.28Z" fill="#EBF2FF"/>
<path d="M312.769 418.574H189.645C185.173 418.574 181.545 414.984 181.545 410.553V370.3C181.545 365.872 185.173 362.281 189.645 362.281H312.769C317.244 362.281 320.87 365.872 320.87 370.3V410.553C320.87 414.984 317.244 418.574 312.769 418.574Z" fill="#EBF2FF"/>
<path d="M265.23 383.391H231.555C231.137 383.391 230.801 383.077 230.801 382.687C230.801 382.3 231.137 381.984 231.555 381.984H265.23C265.645 381.984 265.984 382.3 265.984 382.687C265.984 383.077 265.645 383.391 265.23 383.391Z" fill="#2B478B"/>
<path d="M287.747 389.021H231.555C231.137 389.021 230.801 388.706 230.801 388.318C230.801 387.928 231.137 387.613 231.555 387.613H287.747C288.165 387.613 288.501 387.928 288.501 388.318C288.501 388.706 288.165 389.021 287.747 389.021Z" fill="#2B478B"/>
<path d="M223.764 407.315H191.396V374.947H223.764V407.315Z" fill="#C2CFFF"/>
<path d="M197.025 398.872L203.864 386.206L208.895 393.252L211.405 390.431L216.728 398.872H197.025Z" fill="#AABDF2"/>
<path d="M206.876 384.799C206.876 384.021 207.821 383.392 208.989 383.392C210.154 383.392 211.098 384.021 211.098 384.799C211.098 385.575 210.154 386.206 208.989 386.206C207.821 386.206 206.876 385.575 206.876 384.799Z" fill="#AABDF2"/>
<path d="M286.346 379.169H231.546C231.135 379.169 230.801 378.739 230.801 378.208V375.909C230.801 375.378 231.135 374.947 231.546 374.947H286.346C286.76 374.947 287.094 375.378 287.094 375.909V378.208C287.094 378.739 286.76 379.169 286.346 379.169Z" fill="#2B478B"/>
<path d="M238.604 398.815L243.467 399.479L239.952 402.727L240.787 407.31L236.435 405.149L232.089 407.315L232.914 402.733L229.393 399.491L234.256 398.818L236.425 394.65L238.604 398.815Z" fill="#F78248"/>
<path d="M254.569 398.815L258.947 399.479L255.782 402.727L256.536 407.31L252.619 405.149L248.708 407.315L249.45 402.733L246.281 399.491L250.655 398.818L252.61 394.65L254.569 398.815Z" fill="#F78248"/>
<path d="M270.972 398.815L275.835 399.479L272.32 402.727L273.158 407.31L268.805 405.149L264.458 407.315L265.284 402.733L261.762 399.491L266.622 398.818L268.792 394.65L270.972 398.815Z" fill="#F78248"/>
<path d="M286.94 398.815L291.316 399.479L288.153 402.727L288.904 407.31L284.99 405.149L281.076 407.315L281.821 402.733L278.65 399.491L283.026 398.818L284.979 394.65L286.94 398.815Z" fill="#F78248"/>
<path d="M302.421 398.815L306.797 399.479L303.634 402.727L304.385 407.31L300.471 405.149L296.557 407.315L297.302 402.733L294.131 399.491L298.507 398.818L300.459 394.65L302.421 398.815Z" fill="#F78248"/>
<path d="M312.769 352.43H189.645C185.173 352.43 181.545 348.84 181.545 344.409V304.158C181.545 299.73 185.173 296.137 189.645 296.137H312.769C317.244 296.137 320.87 299.73 320.87 304.158V344.409C320.87 348.84 317.244 352.43 312.769 352.43Z" fill="#EBF2FF"/>
<path d="M265.23 318.654H231.555C231.137 318.654 230.801 318.337 230.801 317.95C230.801 317.564 231.137 317.247 231.555 317.247H265.23C265.645 317.247 265.984 317.564 265.984 317.95C265.984 318.337 265.645 318.654 265.23 318.654Z" fill="#2B478B"/>
<path d="M287.747 322.876H231.555C231.137 322.876 230.801 322.561 230.801 322.171C230.801 321.783 231.137 321.469 231.555 321.469H287.747C288.165 321.469 288.501 321.783 288.501 322.171C288.501 322.561 288.165 322.876 287.747 322.876Z" fill="#2B478B"/>
<path d="M223.764 341.171H191.396V310.21H223.764V341.171Z" fill="#C2CFFF"/>
<path d="M197.025 332.728L203.864 320.062L208.895 327.11L211.405 324.29L216.728 332.728H197.025Z" fill="#AABDF2"/>
<path d="M206.876 318.655C206.876 317.877 207.821 317.247 208.989 317.247C210.154 317.247 211.098 317.877 211.098 318.655C211.098 319.432 210.154 320.062 208.989 320.062C207.821 320.062 206.876 319.432 206.876 318.655Z" fill="#AABDF2"/>
<path d="M286.346 313.025H231.546C231.135 313.025 230.801 312.738 230.801 312.381V310.851C230.801 310.497 231.135 310.21 231.546 310.21H286.346C286.76 310.21 287.094 310.497 287.094 310.851V312.381C287.094 312.738 286.76 313.025 286.346 313.025Z" fill="#2B478B"/>
<path d="M238.604 332.671L243.467 333.335L239.952 336.583L240.787 341.162L236.435 339.005L232.089 341.171L232.914 336.589L229.393 333.347L234.256 332.674L236.425 328.505L238.604 332.671Z" fill="#F78248"/>
<path d="M254.569 332.671L258.947 333.335L255.782 336.583L256.536 341.162L252.619 339.005L248.708 341.171L249.45 336.589L246.281 333.347L250.655 332.674L252.61 328.505L254.569 332.671Z" fill="#F78248"/>
<path d="M270.972 332.671L275.835 333.335L272.32 336.583L273.158 341.162L268.805 339.005L264.458 341.171L265.284 336.589L261.762 333.347L266.622 332.674L268.792 328.505L270.972 332.671Z" fill="#F78248"/>
<path d="M286.94 332.671L291.316 333.335L288.153 336.583L288.904 341.162L284.99 339.005L281.076 341.171L281.821 336.589L278.65 333.347L283.026 332.674L284.979 328.505L286.94 332.671Z" fill="#F78248"/>
<path d="M302.421 332.671L306.797 333.335L303.634 336.583L304.385 341.162L300.471 339.005L296.557 341.171L297.302 336.589L294.131 333.347L298.507 332.674L300.459 328.505L302.421 332.671Z" fill="#F78248"/>
<path d="M230.339 507.235C220.003 507.023 211.497 499.625 209.947 490H216.963C216.713 488.981 216.584 487.922 216.584 486.831H209.691C209.691 475.707 218.892 466.662 230.339 466.423V473.088C222.703 473.326 216.584 479.389 216.584 486.831C216.584 487.922 216.713 488.981 216.963 490C218.411 495.926 223.819 500.367 230.339 500.574C230.492 500.576 230.646 500.579 230.802 500.579C231.766 500.579 232.705 500.486 233.617 500.309C239.056 499.252 243.372 495.198 244.642 490C244.889 488.981 245.021 487.922 245.021 486.831C245.021 480.169 240.118 474.613 233.617 473.353V466.598C243.944 467.928 251.911 476.478 251.911 486.831H245.021C245.021 487.922 244.889 488.981 244.642 490H251.661C250.222 498.886 242.869 505.87 233.617 507.061V500.309C232.705 500.486 231.766 500.579 230.802 500.579C230.646 500.579 230.492 500.576 230.339 500.574V507.235Z" fill="#C7D7FA"/>
<path d="M216.728 490.348H191.396V487.533H216.361C216.361 488.502 216.486 489.443 216.728 490.348Z" fill="#C7D7FA"/>
<path d="M308.204 490.348H274.745V487.533H308.204V489.448V490.348ZM271.49 490.348H251.84H244.874C245.119 489.443 245.251 488.502 245.251 487.533H252.087H271.49V490.348Z" fill="#C7D7FA"/>
<path d="M233.616 473.46C232.832 473.275 232.026 473.178 231.199 473.178C231.065 473.178 230.933 473.181 230.801 473.184V466.232V432.648H233.616V466.415V473.46Z" fill="#C7D7FA"/>
<path d="M233.616 543.826H230.801V500.472C230.933 500.475 231.065 500.478 231.199 500.478C232.026 500.478 232.832 500.382 233.616 500.199V507.162V543.826Z" fill="#C7D7FA"/>
<path d="M311.018 491.755H308.204V432.647L311.018 432.904V488.721V491.755Z" fill="#C7D7FA"/>
<path d="M274.428 543.826H271.613V432.647H274.428V486.611V489.862V543.826Z" fill="#C7D7FA"/>
<path d="M237.838 462.201H253.318V436.869H237.838V462.201Z" fill="#C7D7FA"/>
<path d="M191.396 473.46H206.877V455.165H191.396V473.46Z" fill="#C7D7FA"/>
<path d="M191.396 452.35H222.357V436.869H191.396V452.35Z" fill="#C7D7FA"/>
<path d="M256.133 452.35H267.392V436.869H256.133V452.35Z" fill="#C7D7FA"/>
<path d="M256.133 481.904H267.392V455.165H256.133V481.904Z" fill="#C7D7FA"/>
<path d="M256.133 508.643H267.392V493.163H256.133V508.643Z" fill="#C7D7FA"/>
<path d="M281.464 481.904H291.316V436.869H281.464V481.904Z" fill="#C7D7FA"/>
<path d="M294.131 481.904H305.389V436.869H294.131V481.904Z" fill="#C7D7FA"/>
<path d="M280.057 543.826H311.018V494.57H280.057V543.826Z" fill="#C7D7FA"/>
<path d="M236.43 543.826H267.391V525.531H236.43V543.826Z" fill="#C7D7FA"/>
<path d="M236.43 522.716H267.391V512.865H236.43V522.716Z" fill="#C7D7FA"/>
<path d="M191.396 543.826H219.542V512.865H191.396V543.826Z" fill="#C7D7FA"/>
<path d="M191.396 508.643H202.655V491.755H191.396V508.643Z" fill="#C7D7FA"/>
<path d="M123.845 564.936H118.215V557.899H123.845V564.936Z" fill="#163560"/>
<path d="M153.398 564.936H149.176V557.899H153.398V564.936Z" fill="#163560"/>
<path d="M118.215 566.343C118.215 564.013 119.791 562.121 121.734 562.121C123.677 562.121 125.252 564.013 125.252 566.343C125.252 568.677 123.677 570.565 121.734 570.565C119.791 570.565 118.215 568.677 118.215 566.343Z" fill="#1F4777"/>
<path d="M119.622 566.343C119.622 564.788 120.567 563.528 121.733 563.528C122.899 563.528 123.844 564.788 123.844 566.343C123.844 567.899 122.899 569.158 121.733 569.158C120.567 569.158 119.622 567.899 119.622 566.343Z" fill="#163560"/>
<path d="M147.769 566.343C147.769 564.013 149.344 562.121 151.289 562.121C153.23 562.121 154.805 564.013 154.805 566.343C154.805 568.677 153.23 570.565 151.289 570.565C149.344 570.565 147.769 568.677 147.769 566.343Z" fill="#1F4777"/>
<path d="M149.176 566.343C149.176 564.788 150.121 563.528 151.289 563.528C152.453 563.528 153.398 564.788 153.398 566.343C153.398 567.899 152.453 569.158 151.289 569.158C150.121 569.158 149.176 567.899 149.176 566.343Z" fill="#163560"/>
<path d="M164.296 562.121H109.442C104.183 562.121 99.9199 557.662 99.9199 552.163V550.863H173.101V552.913C173.101 557.999 169.158 562.121 164.296 562.121Z" fill="#C65528"/>
<path d="M174.508 461.839V548.407C174.508 549.452 174.392 550.47 174.171 551.447H164.034C162.459 551.447 160.992 551.906 159.755 552.701C158.989 553.187 158.315 553.802 157.76 554.516C156.705 555.869 156.079 557.571 156.079 559.422V562.121H116.357V559.422C116.357 556.639 114.937 554.188 112.78 552.76C112.17 552.357 111.499 552.035 110.785 551.811C110.033 551.575 109.232 551.447 108.401 551.447H97.4426C97.2222 550.47 97.1053 549.452 97.1053 548.407V461.839C97.1053 454.267 103.229 448.128 110.785 448.128H160.828C168.387 448.128 174.508 454.267 174.508 461.839Z" fill="#F99746"/>
<path d="M151.506 448.128C141.933 443.487 133.957 443.719 128.951 444.73C123.523 445.828 120.315 448.053 120.283 448.076L119.622 446.66C119.759 446.566 123.024 444.288 128.669 443.134C133.852 442.074 142.107 441.82 151.991 446.611L151.506 448.128Z" fill="#163560"/>
<path d="M112.586 448.128V552.27C112.156 551.869 111.682 551.548 111.179 551.325V448.128H112.586Z" fill="#ED7D2B"/>
<path d="M129.474 448.128V562.121H126.659V448.128H129.474Z" fill="#ED7D2B"/>
<path d="M143.547 448.128V562.121H142.14V448.128H143.547Z" fill="#ED7D2B"/>
<path d="M160.435 448.128V551.876C159.353 552.359 158.403 552.969 157.62 553.677V448.128H160.435Z" fill="#ED7D2B"/>
<path d="M54.25 403.094C54.2492 402.936 56.9947 398.061 56.1214 397.685C55.2481 397.311 53.6834 397.366 53.5019 398.222C53.3197 399.076 54.25 403.094 54.25 403.094Z" fill="#FFB27D"/>
<path d="M54.8856 405.362C54.8873 404.904 54.3918 397.932 53.2914 396.545C52.1907 395.157 49.9432 393.182 49.2361 393.244C48.5292 393.302 45.7649 397.228 46.5959 400.237C47.4271 403.245 50.9345 407.315 50.9345 407.315L54.8856 405.362Z" fill="#FFB27D"/>
<path d="M58.8106 396.865L52.1762 398.855C51.9559 398.92 51.724 398.795 51.6581 398.574L47.8665 385.917C47.8006 385.699 47.9255 385.467 48.1458 385.401L54.7802 383.409C55.0002 383.343 55.2321 383.468 55.298 383.689L59.0899 396.346C59.1558 396.567 59.0306 396.8 58.8106 396.865Z" fill="#F1A34F"/>
<path d="M57.1665 397.185L51.063 398.842C50.6673 398.952 50.2501 398.747 50.1313 398.388L46.4733 387.328C46.3548 386.97 46.5794 386.591 46.9754 386.485L53.0786 384.827C53.4746 384.72 53.8918 384.923 54.0103 385.282L57.6686 396.341C57.7871 396.7 57.5622 397.078 57.1665 397.185Z" fill="#D86713"/>
<path d="M47.8489 394.259C47.8489 394.259 51.2242 390.212 52.0491 390.437C53.2262 390.757 48.9888 395.894 48.9888 395.894C48.9888 395.894 52.1289 392.057 52.6191 392.344C53.7368 393.002 51.9577 395.414 50.1939 397.262C50.1939 397.262 53.3515 395.009 53.4542 395.414C53.8148 396.836 49.9874 400.279 49.9874 400.279L47.8489 396.473V394.259Z" fill="#FFB27D"/>
<path d="M46.4417 397.464C46.5323 396.939 46.9905 386.708 47.1864 387.678C47.3824 388.649 47.849 394.015 47.849 394.015L46.4417 397.464Z" fill="#FFB27D"/>
<path d="M90.0685 395.425C90.0685 395.425 89.7823 406.664 86.6352 415.738C84.1495 422.902 79.8783 428.713 72.5517 426.567C71.8022 426.345 71.0772 426.111 70.3736 425.856L70.3645 425.853C55.4796 420.513 50.6635 408.288 50.6635 408.288C51.7722 406.406 54.9833 405.71 54.9833 405.71C57.9806 405.877 71.1535 411.639 71.9944 411.815C75.0407 412.444 77.5022 395.2 79.4822 389.226C81.4625 383.248 89.566 380.577 89.566 380.577L90.0685 395.425Z" fill="#739AF0"/>
<path d="M87.254 407.327L86.9616 415.557C84.4248 422.836 80.0659 428.74 72.5888 426.559C71.824 426.334 71.084 426.097 70.3661 425.838C70.6055 425.868 75.1819 426.504 77.0969 424.539C79.0649 422.519 78.8595 415.822 82.4848 411.359C86.1128 406.895 87.254 407.327 87.254 407.327Z" fill="#5283DB"/>
<path d="M87.1829 553.822C87.1829 553.822 90.6592 557.104 89.9809 559.434C89.3027 561.764 86.1653 563.317 85.7413 566.165C85.3173 569.013 83.6215 570.565 82.0952 570.565C80.5689 570.565 74.8187 570.565 74.8187 570.565C74.8187 570.565 73.6952 568.561 76.4085 567.957C79.1218 567.353 80.1449 564.008 79.9754 560.9C79.8059 557.795 80.2297 553.652 80.2297 553.652L85.9959 552.27L87.1829 553.822Z" fill="#0B2442"/>
<path d="M46.4417 570.565H69.1966C70.089 570.565 70.8221 569.826 70.8465 568.895C70.8827 567.501 70.7719 565.474 70.0328 563.767C68.8178 560.952 68.0505 560.458 73.1808 552.27C71.6381 553.931 67.479 553.173 63.9692 552.68C63.5393 553.406 57.0277 563.919 55.5912 564.996C54.0045 566.188 46.9303 565.763 46.4417 570.565Z" fill="#0B2442"/>
<path d="M82.269 443.551C82.269 443.551 65.4716 474.649 60.9071 491.775C57.3644 505.066 78.9864 556.492 78.9864 556.492C78.9864 556.492 80.7532 556.379 83.6367 555.266C86.4672 554.174 87.5451 551.245 87.5451 551.245C87.5451 551.245 86.2631 514.476 81.8865 496.686C80.9041 492.692 86.6457 479.813 96.3364 472.756C106.028 465.703 110.063 443.005 104.294 441.47C98.5246 439.936 82.269 443.551 82.269 443.551Z" fill="#163560"/>
<path d="M96.7423 434.055C96.7423 434.055 79.3906 498.247 74.1267 512.661C68.8625 527.075 60.5149 557.67 60.5149 557.67C60.5149 557.67 65.7928 560.171 72.551 558.99C72.551 558.99 97.9233 521.479 99.028 504.899C99.5386 497.233 125.06 466.854 122.216 447.045L96.7423 434.055Z" fill="#1C468A"/>
<path d="M121.652 454.017C121.652 454.017 117.937 455.877 111.37 456.422H111.364C103.846 457.048 92.5852 455.951 78.8707 448.375C78.8707 448.375 75.0452 445.246 79.7452 431.946C83.3023 421.88 85.0357 400.651 89.3776 381.307C89.3776 381.307 103.463 376.923 114.763 380.711C123.398 383.608 122.539 396.754 124.133 410.442C124.281 411.721 124.451 413.005 124.652 414.283C127.01 429.268 121.652 454.017 121.652 454.017Z" fill="#739AF0"/>
<path d="M84.4393 351.436C84.4393 351.436 94.4697 335.209 102.237 343.561C102.237 343.561 107.315 344.851 110.224 352.707C113.192 360.724 108.57 367.805 105.483 366.661C103.504 365.926 102.577 369.318 102.577 369.318L84.4393 351.436Z" fill="#233862"/>
<path d="M99.9199 342.92C99.9199 342.92 100.606 336.354 110.414 336.993C110.414 336.993 105.775 337.072 104.78 338.966C104.78 338.966 108.152 336.839 110.612 337.875C113.073 338.908 114.115 343.41 113.982 344.847C113.849 346.28 111.96 350.758 110.306 350.991C108.653 351.225 106.486 350.079 106.486 350.079L99.9199 342.92Z" fill="#233862"/>
<path d="M105.549 379.048C104.616 376.655 103.225 374.144 102.108 366.503L101.512 366.705L91.476 370.103C91.476 370.103 92.1796 373.197 92.6279 376.139C92.8119 377.34 92.9428 379.489 93.0285 381.363C93.1161 383.282 95.0778 383.463 97.0721 383.373C102.378 383.137 105.302 381.236 105.549 379.048Z" fill="#FFB27D"/>
<path d="M91.476 370.952C91.476 370.952 92.1666 373.721 92.6067 376.355C98.2585 375.496 100.512 370.582 101.327 367.911L91.476 370.952Z" fill="#E8945B"/>
<path d="M101.783 366.815C101.783 366.815 104.009 361.709 104.14 357.606C104.233 354.678 101.331 344.3 91.1861 347.359C91.1861 347.359 88.2203 348.108 85.6677 350.489C83.6376 352.383 80.8645 356.231 85.7902 364.931L87.1709 367.911L101.783 366.815Z" fill="#233862"/>
<path d="M90.9366 373.537C90.9366 373.537 103.807 371.904 102.663 363.93C101.519 355.957 102.409 350.378 94.1439 351.083C85.8784 351.788 84.7219 355.058 84.4542 357.811C84.1869 360.566 87.5596 373.758 90.9366 373.537Z" fill="#FFB27D"/>
<path d="M87.2542 351.675C87.2542 351.675 92.1502 360.169 97.7778 360.752C103.405 361.336 105.549 359.63 105.549 359.63C105.549 359.63 100.911 357.055 99.2147 351.683C99.2147 351.683 89.2738 347.036 87.2542 351.675Z" fill="#233862"/>
<path d="M88.6614 352.29C88.6614 352.29 86.451 354.852 86.1212 357.061C85.7915 359.266 86.0926 363.655 84.9104 363.688C84.9104 363.688 81.5161 357.476 83.8533 353.292C86.3312 348.857 88.6614 352.29 88.6614 352.29Z" fill="#233862"/>
<path d="M88.6613 352.55C88.6613 352.55 92.6093 362.759 99.9198 365.096C99.9198 365.096 92.1897 359.64 90.6664 352.735C89.1429 345.826 88.6613 352.55 88.6613 352.55Z" fill="#233862"/>
<path d="M121.792 454.125C121.792 454.125 118.223 456.017 111.913 456.572H111.907C111.907 456.572 106.723 449.745 112.507 442.097C118.291 434.446 112.056 420.334 116.51 412.656C119.61 407.316 122.627 408.559 124.177 409.805C124.319 411.106 124.483 412.412 124.676 413.712C126.941 428.953 121.792 454.125 121.792 454.125Z" fill="#5283DB"/>
<path d="M146.057 442.499C146.057 442.499 146.851 444.482 147.959 444.616C149.766 444.832 153.212 446.462 153.755 446.806C155.221 447.742 155.121 451.925 153.654 452.32C152.19 452.711 151.455 449.2 146.875 448.261C145.322 447.942 143.055 449.095 142.14 445.096L146.057 442.499Z" fill="#FFB27D"/>
<path d="M115.383 380.68C128.932 385.545 129.433 408.973 135.473 419.292C141.703 429.933 147.769 443.94 147.769 443.94C147.769 443.94 147.661 444.358 145.337 445.008C143.701 445.467 141.992 445.273 141.992 445.273C141.992 445.273 129.193 433.969 125.715 429.51C122.237 425.051 114.037 404.364 114.037 404.364C114.037 404.364 110.005 378.751 115.383 380.68Z" fill="#739AF0"/>
<path d="M142.14 446.721C142.14 446.721 142.441 448.091 144.273 449.2C146.104 450.308 147.574 451.417 147.751 450.731C147.928 450.045 146.732 449.305 146.447 448.039C146.162 446.772 142.14 446.721 142.14 446.721Z" fill="#FFB27D"/>
<path d="M486.934 225.771H260.354L272.436 172.292H474.855L486.934 225.771Z" fill="#F78248"/>
<path d="M322.277 208.883H301.167V187.773H322.277V208.883Z" fill="#BDD1F9"/>
<path d="M321.654 208.385H301.79V189.678H321.654V208.385ZM299.76 187.773V210.29H323.684V187.773H299.76Z" fill="#163560"/>
<path d="M311.018 208.883V187.773H312.426V208.883H311.018Z" fill="#163560"/>
<path d="M326.499 187.773H296.945V183.551H326.499V187.773Z" fill="#163560"/>
<path d="M384.199 208.883H363.089V187.773H384.199V208.883Z" fill="#BDD1F9"/>
<path d="M383.696 208.385H364.997V189.678H383.696V208.385ZM363.089 187.773V210.29H385.607V187.773H363.089Z" fill="#163560"/>
<path d="M372.941 208.883V187.773H374.348V208.883H372.941Z" fill="#163560"/>
<path d="M388.421 187.773H358.867V183.551H388.421V187.773Z" fill="#163560"/>
<path d="M446.122 208.883H425.012V187.773H446.122V208.883Z" fill="#BDD1F9"/>
<path d="M445.618 208.385H426.919V189.678H445.618V208.385ZM425.012 187.773V210.29H447.529V187.773H425.012Z" fill="#163560"/>
<path d="M434.863 208.883V187.773H436.27V208.883H434.863Z" fill="#163560"/>
<path d="M450.343 187.773H419.382V183.551H450.343V187.773Z" fill="#163560"/>
<path d="M1.51078 570.565H31.8831C33.5108 569.24 30.7568 566.228 27.8795 566.028C26.6296 565.937 25.0494 566.186 23.2436 566.554C22.8258 561.223 20.4389 537.261 11.4434 538.225C1.32897 539.303 11.4434 548.778 14.3026 554.385C16.4209 558.54 18.6551 564.497 19.6762 567.309C18.855 567.479 18.0047 567.647 17.1364 567.803C15.7959 563.85 10.8077 550.556 4.46428 551.328C-2.98344 552.237 0.0101473 557.567 5.2891 560.732C9.16201 563.057 13.9176 566.366 16.1773 567.961C14.2628 568.261 12.2646 568.464 10.2375 568.42C5.03477 568.299 2.49538 569.772 1.51078 570.565Z" fill="#A8D29F"/>
<path d="M613.884 570.565H591.435C590.231 569.527 592.266 567.171 594.392 567.015C595.317 566.942 596.485 567.14 597.821 567.427C598.127 563.255 599.893 544.501 606.543 545.255C614.019 546.101 606.543 553.515 604.429 557.904C602.862 561.155 601.211 565.819 600.457 568.019C601.064 568.154 601.691 568.282 602.334 568.404C603.324 565.312 607.011 554.907 611.701 555.514C617.205 556.222 614.992 560.395 611.092 562.87C608.227 564.689 604.715 567.278 603.042 568.529C604.459 568.764 605.934 568.923 607.435 568.886C611.278 568.795 613.154 569.945 613.884 570.565Z" fill="#A8D29F"/>
<path d="M376.013 377.131C377.128 379.932 379.059 383.185 381.088 383.992C383.387 384.909 384.347 386.206 384.347 386.206L386.204 385.197L388.421 383.992C388.421 383.992 388.367 383.764 388.259 383.387C388.154 383.016 387.986 382.496 387.761 381.918C387.761 381.918 387.081 381.101 387.497 380.075C387.916 379.051 387.83 377.466 387.119 376.498C386.408 375.531 385.722 373.151 385.293 373.222C384.258 373.388 385.804 376.662 385.36 377.267C384.96 377.816 384.458 377.629 384.362 377.585L384.347 377.576C381.438 376.383 377.909 369.936 376.347 370.806C375.762 371.132 375.537 375.937 376.013 377.131Z" fill="#FFB27D"/>
<path d="M385.389 380.743L382.119 383.287C381.889 383.467 381.567 383.407 381.404 383.152L373.034 369.943C372.872 369.687 372.926 369.33 373.157 369.153L376.426 366.606C376.657 366.426 376.979 366.489 377.141 366.745L385.514 379.95C385.676 380.206 385.619 380.563 385.389 380.743Z" fill="#2B478B"/>
<path d="M382.624 383.258L380.702 384.722C380.525 384.856 380.279 384.809 380.156 384.62L371.603 371.45C371.48 371.261 371.523 370.994 371.701 370.858L373.623 369.394C373.8 369.261 374.046 369.307 374.169 369.499L382.722 382.667C382.845 382.859 382.802 383.125 382.624 383.258Z" fill="#233862"/>
<path d="M435.126 362.281C435.126 362.281 417.508 392.915 411.118 398.551L387.682 381.132C387.682 381.132 384.282 382.173 382.792 385.574C382.792 385.574 400.803 414.509 411.036 415.706C425.005 417.336 444.714 381.06 444.714 381.06L435.126 362.281Z" fill="#233862"/>
<path d="M467.336 570.565H477.606C478.896 569.856 480.049 568.228 480.411 565.799C480.913 562.449 484.62 560.624 485.423 557.88C486.223 555.143 482.115 551.283 482.115 551.283L481.428 550.386L480.713 549.455L473.899 551.083C473.899 551.083 473.729 552.726 473.629 554.819C473.553 556.329 473.516 558.077 473.598 559.609C473.799 563.262 472.591 567.199 469.384 567.911C467.013 568.435 467.12 569.859 467.336 570.565Z" fill="#2D4C7F"/>
<path d="M416.568 570.565H439.741C440.855 569.111 440.447 563.748 440.279 561.996C440.243 561.643 440.219 561.437 440.219 561.437C440.219 561.437 432.305 554.672 431.218 559.852C431.185 560.015 431.146 560.173 431.101 560.33C429.731 565.176 423.589 567.378 420.042 567.991C417.736 568.389 416.883 569.67 416.568 570.565Z" fill="#2D4C7F"/>
<path d="M420.79 441.743C420.79 441.743 421.998 456.592 423.421 474.44C425.352 498.686 427.672 528.471 427.902 534.111C428.301 543.909 429.893 559.579 429.893 559.579C429.893 559.579 433.673 563.304 441.235 561.736C441.235 561.736 447.976 539.364 449.9 515.692C449.931 515.305 449.961 514.912 449.991 514.523C451.783 490.425 454.565 439.684 454.565 439.684L420.79 441.743Z" fill="#F99746"/>
<path d="M420.79 441.742C420.79 441.742 421.998 456.589 423.421 474.434L449.9 515.679C449.931 515.293 449.961 514.9 449.991 514.51C451.783 490.417 454.565 439.684 454.565 439.684L420.79 441.742Z" fill="#ED7D2B"/>
<path d="M426.419 439.072C426.419 439.072 444.621 494.152 457.164 520.258C469.703 546.365 473.672 553.677 473.672 553.677C473.672 553.677 481.86 550.882 482.712 548.715C482.712 548.715 478.366 502.898 469.682 490.458C464.774 483.426 461.476 459.491 461.584 452.405C461.692 445.319 460.883 431.24 460.883 431.24L426.419 439.072Z" fill="#F99746"/>
<path d="M430.641 364.483C439.403 367.241 454.565 359.796 454.565 359.796C454.565 359.796 446.487 353.747 446.91 341.172L440.134 346.619L435.532 350.316C435.532 350.316 435.551 352.497 436.051 356.322L436.058 356.353C436.309 358.261 435.535 360.171 433.996 361.332C431.835 362.96 430.641 364.483 430.641 364.483Z" fill="#FFB27D"/>
<path d="M436.27 350.637C436.27 350.637 436.289 352.821 436.783 356.652C441.82 355.776 447.529 347.542 447.529 347.542C444.966 346.793 442.722 346.656 440.813 346.933L436.27 350.637Z" fill="#ED975D"/>
<path d="M433.404 350.736C433.404 350.736 447.566 353.109 448.895 344.189C450.225 335.267 452.948 329.567 443.961 327.673C434.977 325.782 432.708 328.919 431.545 331.786C430.386 334.656 429.754 349.889 433.404 350.736Z" fill="#FFB27D"/>
<path d="M419.658 442.453C419.909 442.661 420.201 442.789 420.535 442.789C423.661 442.745 432.778 444.496 440.492 443.698C446.995 443.069 452.753 441.124 458.933 438.331C459.755 437.962 461.642 436.946 461.601 436.02C461.575 435.007 461.474 433.539 461.347 431.69C460.91 425.257 460.148 414.193 460.892 401.432C461.025 399.055 461.096 396.697 461.105 394.377C461.167 377.08 457.766 361.864 450.927 356.715C450.345 356.295 446.758 358.061 443.464 359.699C440.421 361.212 438.084 361.361 435.207 360.774L431.626 363.356C428.122 366.632 424.287 371.088 422.621 377.854C421.2 383.611 420.367 393.992 419.909 404.752C419.702 409.628 419.534 414.545 419.492 419.211V419.378C419.451 419.84 419.451 420.346 419.451 420.808C419.283 432.786 419.451 442.283 419.658 442.453Z" fill="#2B478B"/>
<path d="M461.602 431.24C461.186 424.817 460.462 413.77 461.169 401.028C461.296 398.655 461.363 396.299 461.372 393.983C458.664 387.027 456.45 381.984 456.45 381.984H449.625C449.625 381.984 444.619 418.171 461.602 431.24Z" fill="#233862"/>
<path d="M448.312 342.579C448.312 342.579 446.865 342.335 447.098 340.328C447.332 338.322 447.329 335.7 445.705 336.188C444.082 336.679 444 337.984 443.335 337.221C442.668 336.459 442.655 333.245 437.824 333.023C432.992 332.797 431.032 334.486 428.783 333.495C426.537 332.504 426.419 329.086 426.419 329.086C426.419 329.086 427.059 330.306 428.024 330.696C428.024 330.696 424.276 325.546 428.613 322.012C432.953 318.481 437.378 320.792 439.888 320.945C445.42 321.283 448.995 321.616 450.801 325.268C452.61 328.921 451.863 339.063 448.312 342.579Z" fill="#2B478B"/>
<path d="M554.546 564.138C554.091 566.999 556.216 570.304 559.291 571.522C562.366 572.739 565.227 571.405 565.682 568.546C566.137 565.684 564.013 562.379 560.938 561.165C557.863 559.947 555.001 561.279 554.546 564.138Z" fill="#1C468A"/>
<path d="M517.949 564.141C517.551 566.999 519.409 570.304 522.1 571.521C524.791 572.739 527.294 571.407 527.693 568.546C528.091 565.687 526.232 562.382 523.541 561.165C520.851 559.947 518.347 561.279 517.949 564.141Z" fill="#1C468A"/>
<path d="M565.744 563.073L559.032 565.917C558.356 566.206 557.599 566.349 556.8 566.343L514.638 565.976L508.044 557.899L565.744 563.073Z" fill="#739AF0"/>
<path d="M522.761 473.46L506.368 449.737L506.347 449.691C506.243 449.48 503.63 444.405 489.755 443.023L489.691 443.017L478.265 441.49C476.784 441.224 472.522 440.747 470.624 441.719C469.781 442.151 469.464 442.845 469.653 443.84C470.025 445.811 480.917 461.197 488.146 471.058L485.997 471.592C484.141 469.06 467.837 446.764 467.299 443.928C467.018 442.443 467.608 441.315 469.052 440.578C472.153 438.991 478.127 439.978 478.762 440.087L490.033 441.589C504.973 443.083 508.264 448.674 508.596 449.317L524.931 472.959L522.761 473.46Z" fill="#1C468A"/>
<path d="M494.952 469.238L473.231 473.904C473.231 473.904 467.259 476.659 471.67 488.463C475.553 498.848 495.903 557.128 495.903 557.128C495.903 557.128 500.141 569.257 524.932 565.685L494.952 469.238Z" fill="#739AF0"/>
<path d="M486.449 484.146L509.302 549.945C510.228 552.608 511.766 555.052 513.692 557.102C517.265 560.901 522.175 563.357 526.984 563.378L547.939 563.468L548.456 563.471L561.58 563.528C562.903 563.534 564.131 563.357 565.251 563.023C565.514 562.948 565.771 562.861 566.022 562.768C570.161 561.205 572.679 557.384 572.778 552.695C572.817 550.696 572.422 548.544 571.526 546.338L545.965 483.386C543.238 476.674 536.631 471.533 529.914 470.899L526.124 470.542L525.222 470.457H525.219L524.46 470.388L511.796 469.192L510.243 469.048L498.02 467.896C496.103 467.716 494.344 467.911 492.788 468.416C492.683 468.452 492.581 468.486 492.483 468.522L491.856 468.768C486.551 471.037 484.03 477.175 486.449 484.146Z" fill="#83B0FF"/>
<path d="M561.642 563.528C561.621 563.528 561.6 563.528 561.576 563.528L548.448 563.471L547.931 563.468L526.969 563.378C525.86 563.372 524.746 563.24 523.646 562.992C519.965 562.158 516.425 560.034 513.673 557.116C514.055 554.734 514.602 551.294 519.182 550.526C524.483 549.635 542.454 549.455 556.076 549.455C565.272 549.455 572.485 549.536 572.485 549.536C572.488 549.542 572.488 549.548 572.491 549.554C572.706 550.64 572.798 551.699 572.778 552.719C572.772 552.899 572.766 553.078 572.754 553.258C572.332 557.737 569.306 561.516 566.049 562.758C566.04 562.761 566.031 562.764 566.019 562.77C565.768 562.863 565.511 562.95 565.248 563.025C565.245 563.028 565.242 563.028 565.239 563.028C564.14 563.351 562.936 563.528 561.642 563.528Z" fill="#7BA5F7"/>
<path d="M524.932 470.645C525.039 470.702 536.314 476.792 538.961 482.159C541.683 487.677 566.865 551.973 567.119 552.622C567.14 552.674 568.964 558.889 565.154 563.528L565.776 563.363C566.042 563.288 566.296 563.201 566.548 563.107C570.014 558.291 567.968 552.752 567.873 552.511C566.835 549.855 542.418 487.52 539.682 481.963C537.28 477.098 529.19 472.258 526.597 470.799L525.694 470.714H525.691L524.932 470.645Z" fill="#739AF0"/>
<path d="M510.858 469.238C512.471 470.207 518.738 474.374 521.779 482.079C525.35 491.12 546.891 556.781 547.107 557.441L547.125 557.489L547.148 557.534C547.166 557.567 548.782 561.109 547.286 563.522L547.801 563.525L548.307 563.528C549.674 560.944 548.085 557.774 547.848 557.33C547.183 555.301 526.056 490.922 522.514 481.959C519.891 475.316 514.971 471.195 512.38 469.382L510.858 469.238Z" fill="#739AF0"/>
<path d="M491.156 469.587C491.204 469.611 493.546 470.775 495.828 472.792C498.11 474.81 500.83 477.919 502.628 482.306C506.315 491.289 527.406 556.357 527.617 557.011L527.633 557.064L527.66 557.109C527.681 557.142 528.899 561.123 527.352 563.522L528.687 563.528C529.778 561.335 528.648 557.381 528.385 556.912C527.711 554.832 507.043 491.095 503.386 482.181C499.95 473.801 493.456 469.966 492.099 469.238C491.993 469.274 491.89 469.306 491.791 469.342L491.156 469.587Z" fill="#739AF0"/>
<path d="M477.083 428.092C477.083 428.092 478.011 435.053 478.077 435.958C478.511 442.087 477.687 442.676 480.869 443.756C481.756 444.055 484.154 444.062 485.527 442.289C485.527 442.289 483.3 442.14 483.684 438.776C484.128 434.897 483.896 435.999 481.654 432.835L481.133 427.018L477.083 428.092Z" fill="#FFB27D"/>
<path d="M479.121 433.711C476.51 434.22 473.678 434.013 473.678 434.013C473.678 434.013 465.927 410.01 464.927 407.817C463.931 405.625 441.899 379.671 441.899 379.671L451.077 356.652C451.077 356.652 474.907 396.544 477.325 402.149C481.324 411.413 482.712 432.18 482.712 432.18C482.712 432.18 481.172 433.31 479.121 433.711Z" fill="#2B478B"/>
<path d="M477.751 436.869C477.751 436.869 477.373 438.334 477.361 439.022C477.319 441.226 476.908 442.245 477.169 442.44C477.711 442.84 478.254 441.118 478.46 439.623C478.666 438.128 477.751 436.869 477.751 436.869Z" fill="#FFB27D"/>
<path d="M313.833 287.693C313.833 286.915 313.204 286.286 312.426 286.286C311.65 286.286 311.018 286.915 311.018 287.693C311.018 288.469 311.65 289.1 312.426 289.1C313.204 289.1 313.833 288.469 313.833 287.693Z" fill="#163560"/>
<path d="M315.981 286.286C315.819 286.286 315.652 286.228 315.523 286.111C314.473 285.166 313.387 284.706 312.294 284.747C310.59 284.81 309.377 286.063 309.364 286.076C309.118 286.336 308.696 286.355 308.424 286.121C308.152 285.886 308.128 285.483 308.374 285.223C308.437 285.156 309.959 283.567 312.224 283.475C313.693 283.418 315.111 283.992 316.44 285.185C316.706 285.426 316.719 285.829 316.466 286.086C316.337 286.219 316.157 286.286 315.981 286.286Z" fill="#163560"/>
<path d="M317.458 283.47C317.313 283.47 317.167 283.405 317.051 283.275C315.489 281.489 313.864 280.62 312.219 280.703C309.659 280.826 307.853 283.207 307.835 283.232C307.615 283.528 307.238 283.553 306.995 283.286C306.748 283.015 306.73 282.561 306.947 282.261C307.033 282.146 309.092 279.411 312.157 279.256C314.141 279.155 316.062 280.151 317.868 282.222C318.109 282.492 318.117 282.954 317.892 283.243C317.776 283.394 317.619 283.47 317.458 283.47Z" fill="#163560"/>
<path d="M320.261 280.656C320.112 280.656 319.96 280.605 319.845 280.498C317.584 278.48 315.219 277.5 312.821 277.595C309.093 277.736 306.476 280.438 306.449 280.464C306.225 280.702 305.84 280.72 305.591 280.507C305.34 280.294 305.321 279.929 305.546 279.693C305.664 279.567 308.514 276.609 312.758 276.442C315.504 276.333 318.166 277.416 320.679 279.659C320.924 279.877 320.934 280.242 320.703 280.475C320.585 280.596 320.421 280.656 320.261 280.656Z" fill="#163560"/>
<path d="M197.606 280.656H185.186C184.73 280.656 184.359 280.341 184.359 279.953C184.359 279.564 184.73 279.249 185.186 279.249H197.606C198.062 279.249 198.432 279.564 198.432 279.953C198.432 280.341 198.062 280.656 197.606 280.656Z" fill="#163560"/>
<path d="M197.606 283.471H185.186C184.73 283.471 184.359 283.158 184.359 282.769C184.359 282.38 184.73 282.064 185.186 282.064H197.606C198.062 282.064 198.432 282.38 198.432 282.769C198.432 283.158 198.062 283.471 197.606 283.471Z" fill="#163560"/>
<path d="M197.606 287.693H185.186C184.73 287.693 184.359 287.379 184.359 286.988C184.359 286.599 184.73 286.285 185.186 286.285H197.606C198.062 286.285 198.432 286.599 198.432 286.988C198.432 287.379 198.062 287.693 197.606 287.693Z" fill="#163560"/>
<path d="M56.2928 178.466C56.2928 178.466 60.5852 170.696 70.8494 171.559C70.8494 171.559 85.7512 158.609 101.642 169.833C101.642 169.833 118.534 167.052 131.043 172.238C139.383 175.698 142.14 179.329 142.14 179.329L56.2928 178.466Z" fill="#E2F3FF"/>
<path d="M310 62.4663C310 62.4663 314.292 54.6964 324.557 55.5597C324.557 55.5597 339.458 42.6099 355.349 53.8331C355.349 53.8331 372.241 51.0529 384.751 56.2389C393.091 59.6982 395.847 63.3296 395.847 63.3296L310 62.4663Z" fill="#E2F3FF"/>
<path d="M126.659 145.061C126.659 145.061 136.229 127.967 159.113 129.866C159.113 129.866 192.337 101.378 227.766 126.067C227.766 126.067 265.429 119.949 293.317 131.366C311.915 138.975 318.055 146.961 318.055 146.961L126.659 145.061Z" fill="#E2F3FF"/>
<path d="M380.366 29.0618C380.366 29.0618 389.936 11.9672 412.82 13.8666C412.82 13.8666 446.044 -14.6213 481.473 10.0678C481.473 10.0678 519.136 3.94921 547.024 15.3664C565.622 22.9759 571.762 30.9611 571.762 30.9611L380.366 29.0618Z" fill="#E2F3FF"/>
<path d="M94.2908 210.232C94.2908 210.232 101.609 197.021 119.109 198.49C119.109 198.49 144.516 176.472 171.607 195.555C171.607 195.555 200.407 190.827 221.736 199.646C235.956 205.528 240.652 211.697 240.652 211.697L94.2908 210.232Z" fill="#E2F3FF"/>
<path d="M347.998 94.2322C347.998 94.2322 355.316 81.0214 372.816 82.4903C372.816 82.4903 398.223 60.4725 425.315 79.5557C425.315 79.5557 454.115 74.8274 475.443 83.6469C489.663 89.5287 494.36 95.698 494.36 95.698L347.998 94.2322Z" fill="#E2F3FF"/>
<path d="M240.652 471.349C240.652 460.855 249.472 452.35 260.355 452.35C271.234 452.35 280.057 460.855 280.057 471.349C280.057 481.84 271.234 490.348 260.355 490.348C249.472 490.348 240.652 481.84 240.652 471.349Z" fill="#EBF2FF"/>
<path d="M243.437 471.35C243.137 462.279 250.153 454.64 259.057 454.335C268.003 454.03 275.463 461.177 275.763 470.248C276.062 479.361 269.088 486.961 260.139 487.263C251.235 487.568 243.736 480.463 243.437 471.35ZM232.226 473.497C232.772 490.092 261.073 515.679 261.073 515.679C261.073 515.679 287.631 488.22 287.086 471.628C286.54 455.032 273.818 441.997 258.669 442.513C243.52 443.03 231.681 456.904 232.226 473.497Z" fill="#F78E48"/>
</svg>
